<svg width="64" height="64" viewBox="0 0 64 64" fill="none" xmlns="http://www.w3.org/2000/svg">
<path d="M22 22C22.5304 22 23.0391 22.2107 23.4142 22.5858C23.7893 22.9609 24 23.4696 24 24V48C24 48.5304 23.7893 49.0391 23.4142 49.4142C23.0391 49.7893 22.5304 50 22 50C21.4696 50 20.9609 49.7893 20.5858 49.4142C20.2107 49.0391 20 48.5304 20 48V24C20 23.4696 20.2107 22.9609 20.5858 22.5858C20.9609 22.2107 21.4696 22 22 22V22ZM32 22C32.5304 22 33.0391 22.2107 33.4142 22.5858C33.7893 22.9609 34 23.4696 34 24V48C34 48.5304 33.7893 49.0391 33.4142 49.4142C33.0391 49.7893 32.5304 50 32 50C31.4696 50 30.9609 49.7893 30.5858 49.4142C30.2107 49.0391 30 48.5304 30 48V24C30 23.4696 30.2107 22.9609 30.5858 22.5858C30.9609 22.2107 31.4696 22 32 22V22ZM44 24C44 23.4696 43.7893 22.9609 43.4142 22.5858C43.0391 22.2107 42.5304 22 42 22C41.4696 22 40.9609 22.2107 40.5858 22.5858C40.2107 22.9609 40 23.4696 40 24V48C40 48.5304 40.2107 49.0391 40.5858 49.4142C40.9609 49.7893 41.4696 50 42 50C42.5304 50 43.0391 49.7893 43.4142 49.4142C43.7893 49.0391 44 48.5304 44 48V24Z" fill="#999999"/>
<path fill-rule="evenodd" clip-rule="evenodd" d="M58 12C58 13.0609 57.5786 14.0783 56.8284 14.8284C56.0783 15.5786 55.0609 16 54 16H52V52C52 54.1217 51.1571 56.1566 49.6569 57.6569C48.1566 59.1571 46.1217 60 44 60H20C17.8783 60 15.8434 59.1571 14.3431 57.6569C12.8429 56.1566 12 54.1217 12 52V16H10C8.93913 16 7.92172 15.5786 7.17157 14.8284C6.42143 14.0783 6 13.0609 6 12V8C6 6.93913 6.42143 5.92172 7.17157 5.17157C7.92172 4.42143 8.93913 4 10 4H24C24 2.93913 24.4214 1.92172 25.1716 1.17157C25.9217 0.421427 26.9391 0 28 0L36 0C37.0609 0 38.0783 0.421427 38.8284 1.17157C39.5786 1.92172 40 2.93913 40 4H54C55.0609 4 56.0783 4.42143 56.8284 5.17157C57.5786 5.92172 58 6.93913 58 8V12ZM16.472 16L16 16.236V52C16 53.0609 16.4214 54.0783 17.1716 54.8284C17.9217 55.5786 18.9391 56 20 56H44C45.0609 56 46.0783 55.5786 46.8284 54.8284C47.5786 54.0783 48 53.0609 48 52V16.236L47.528 16H16.472ZM10 12V8H54V12H10Z" fill="#999999"/>
</svg>
