<svg width="128" height="128" viewBox="0 0 128 128" fill="none" xmlns="http://www.w3.org/2000/svg">
<path d="M84.512 67.738C86.888 62.93 90.266 60.558 92.34 59.492C93.4024 60.9289 94.8544 62.0311 96.524 62.668C101.384 64.5 106.754 61.902 108.52 56.864C108.957 55.6174 109.143 54.2966 109.067 52.9778C108.991 51.659 108.655 50.3683 108.078 49.18C109.265 48.6473 110.33 47.8766 111.206 46.9158C112.083 45.955 112.754 44.8244 113.176 43.594C113.909 41.5064 113.93 39.2345 113.234 37.134C114.478 36.618 115.597 35.8437 116.519 34.8625C117.441 33.8812 118.144 32.7153 118.582 31.442C119.042 30.127 119.223 28.7304 119.113 27.3415C119.003 25.9526 118.604 24.602 117.942 23.376C119.218 22.8703 120.37 22.0941 121.317 21.1008C122.264 20.1075 122.985 18.9206 123.43 17.622C125.2 12.582 122.696 7.012 117.836 5.18C117.113 4.90718 116.358 4.72969 115.59 4.652C113.688 4.222 111.192 4 108 4C77.356 4 52.942 21.562 41.246 49.082C26.016 84.934 26.882 115.468 4 115.468C4 120.18 7.836 124 12.578 124C17.316 124 21.16 120.18 21.16 115.468C21.16 120.178 25.004 124 29.742 124C34.48 124 38.324 120.18 38.324 115.468C38.324 120.178 42.168 124 46.906 124C51.644 124 55.488 120.18 55.488 115.468C55.488 120.178 59.332 124 64.07 124C68.812 124 72.652 120.18 72.652 115.468C72.652 120.178 76.496 124 81.234 124C85.972 124 89.816 120.18 89.816 115.468C89.816 120.178 93.66 124 98.398 124C103.14 124 106.98 120.18 106.98 115.468C106.98 120.178 110.824 124 115.562 124C120.3 124 124 120.086 124 115.376C124 115.376 66.414 106.414 84.512 67.738ZM115.738 7.602C119.426 8.992 121.328 13.224 119.988 17.052C118.956 19.99 116.312 21.826 113.468 21.896C114.549 22.8989 115.314 24.1958 115.668 25.6274C116.022 27.059 115.949 28.5629 115.46 29.954C114.452 32.814 111.918 34.642 109.156 34.794C111.176 36.752 111.988 39.84 110.984 42.704C109.98 45.568 107.442 47.392 104.684 47.548C105.708 48.5565 106.423 49.8356 106.746 51.2357C107.069 52.6359 106.986 54.099 106.508 55.454C105.164 59.286 101.086 61.258 97.394 59.864C93.706 58.474 100.296 57.446 101.64 53.618C102.628 50.802 100.504 47.258 100.776 46.134C100.784 46.114 100.784 46.098 100.792 46.08C100.796 46.06 100.808 46.044 100.816 46.026C101.3 44.984 105.124 43.686 106.112 40.87C107.1 38.054 104.976 34.506 105.252 33.386C105.255 33.3661 105.261 33.3467 105.268 33.328C105.272 33.308 105.284 33.292 105.292 33.278C105.776 32.236 109.6 30.934 110.588 28.118C111.62 25.184 109.268 21.462 109.776 20.508C109.98 19.438 114.088 18.148 115.116 15.218C116.46 11.386 112.046 6.208 115.738 7.602M42.296 62.472C45.886 50.816 51.37 39.69 59.424 30.664C65.388 23.976 72.674 18.496 80.736 14.86C87.2902 11.8908 94.2722 9.97519 101.424 9.184C104.21 8.88 107.088 8.656 109.888 8.906C111.43 9.038 112.724 10.14 112.724 11.848C112.724 13.348 111.432 14.922 109.888 14.79C107.678 14.594 105.408 14.716 103.2 14.9C102.126 14.99 101.054 15.108 99.984 15.25L99.388 15.338L98.51 15.478C93.535 16.3252 88.6779 17.7585 84.04 19.748C83.974 19.778 83.938 19.79 83.902 19.806L83.826 19.842C81.3993 20.9284 79.0463 22.1723 76.782 23.566C72.552 26.18 69.324 28.718 65.822 32.276C57.244 40.99 51.44 52.112 47.764 64.038C46.66 67.636 41.18 66.094 42.296 62.472M57.882 64.036C57.304 65.52 56.014 66.556 54.394 66.09C53.034 65.7 51.832 63.962 52.414 62.472C56.426 52.194 62.14 42.386 70.454 35.238C77.13 29.492 85.098 25.394 93.68 23.86C97.308 23.212 101.222 22.716 104.91 23.22C106.446 23.43 107.746 24.4 107.746 26.162C107.746 27.608 106.45 29.318 104.91 29.108C102.93 28.834 100.868 28.912 98.886 29.068C98.178 29.122 97.476 29.194 96.776 29.278L96.558 29.308L96.296 29.35C93.2227 29.8295 90.2069 30.6237 87.296 31.72C86.673 31.9538 86.0555 32.2018 85.444 32.464L85.014 32.658C82.977 33.5956 81.0112 34.6805 79.132 35.904C74.846 38.712 71.1 42.186 67.722 46.444C63.566 51.68 60.336 57.758 57.882 64.036M69.23 64.036C68.706 65.544 67.316 66.54 65.742 66.09C64.336 65.688 63.238 63.984 63.758 62.472C67.566 51.436 75.028 42.702 85.54 38.242C89.99 36.352 95.114 35.028 99.966 35.16C103.618 35.258 103.626 41.14 99.966 41.042C98.73 41.008 97.482 41.138 96.258 41.3L95.646 41.394C94.5537 41.582 93.4695 41.8142 92.396 42.09C90.74 42.524 89.104 43.058 87.518 43.718L87.062 43.912C86.888 43.99 86.712 44.068 86.54 44.152C85.1228 44.8147 83.7535 45.5752 82.442 46.428C80.504 47.694 79.232 48.686 77.556 50.378C73.77 54.184 71.028 58.828 69.23 64.036M75.84 66.382C74.43 65.522 74.152 63.8 74.824 62.354C78.52 54.408 86.684 48.232 95.426 48.322C99.082 48.358 99.086 54.24 95.426 54.2C95.0084 54.2088 94.5914 54.2348 94.176 54.278L94.01 54.296C92.436 54.542 90.884 54.954 89.398 55.556C89.0321 55.7112 88.6713 55.8779 88.316 56.056C87.878 56.286 87.444 56.516 87.026 56.778C86.022 57.396 85.268 57.914 84.494 58.634C82.436 60.532 80.916 62.752 79.72 65.322C79.05 66.77 77.094 67.144 75.84 66.382" fill="#E4CB51"/>
</svg>
